<svg id="visual" viewBox="0 0 1920 1080" width="1920" height="1080" xmlns="http://www.w3.org/2000/svg" xmlns:xlink="http://www.w3.org/1999/xlink" version="1.1"><rect x="0" y="0" width="1920" height="1080" fill="#18181B"></rect><defs><linearGradient id="grad1_0" x1="43.8%" y1="100%" x2="100%" y2="0%"><stop offset="14.444444444444446%" stop-color="#121214" stop-opacity="1"></stop><stop offset="85.55555555555554%" stop-color="#121214" stop-opacity="1"></stop></linearGradient></defs><defs><linearGradient id="grad1_1" x1="43.8%" y1="100%" x2="100%" y2="0%"><stop offset="14.444444444444446%" stop-color="#121214" stop-opacity="1"></stop><stop offset="85.55555555555554%" stop-color="#18181b" stop-opacity="1"></stop></linearGradient></defs><defs><linearGradient id="grad2_0" x1="0%" y1="100%" x2="56.3%" y2="0%"><stop offset="14.444444444444446%" stop-color="#121214" stop-opacity="1"></stop><stop offset="85.55555555555554%" stop-color="#121214" stop-opacity="1"></stop></linearGradient></defs><defs><linearGradient id="grad2_1" x1="0%" y1="100%" x2="56.3%" y2="0%"><stop offset="14.444444444444446%" stop-color="#18181b" stop-opacity="1"></stop><stop offset="85.55555555555554%" stop-color="#121214" stop-opacity="1"></stop></linearGradient></defs><g transform="translate(1920, 1080)"><path d="M-810 0C-805.4 -115.4 -800.7 -230.8 -742.8 -307.7C-684.9 -384.5 -573.7 -422.8 -499.2 -499.2C-424.8 -575.6 -387.1 -690.2 -310 -748.3C-232.9 -806.5 -116.4 -808.2 0 -810L0 0Z" fill="#151518"></path><path d="M-405 0C-402.7 -57.7 -400.4 -115.4 -371.4 -153.8C-342.4 -192.3 -286.8 -211.4 -249.6 -249.6C-212.4 -287.8 -193.5 -345.1 -155 -374.2C-116.4 -403.2 -58.2 -404.1 0 -405L0 0Z" fill="#121214"></path></g><g transform="translate(0, 0)"><path d="M810 0C808.8 115.5 807.5 231 748.3 310C689.2 388.9 572.1 431.2 488.6 488.6C405.1 546 355.2 618.4 279.4 674.4C203.5 730.5 101.8 770.3 0 810L0 0Z" fill="#151518"></path><path d="M405 0C404.4 57.8 403.8 115.5 374.2 155C344.6 194.5 286.1 215.6 244.3 244.3C202.6 273 177.6 309.2 139.7 337.2C101.8 365.3 50.9 385.1 0 405L0 0Z" fill="#121214"></path></g></svg>